:FULLY-SPECIFIED
:FORCE-ALL-JOINTS-BE-3DOF
:DEGREES
544
root 7.26654 15.664 -4.05149 -173.696 63.5292 -178.402
lfemur -25.0272 -3.47906 -18.5267
ltibia 62.9548 0 0
lfoot -34.1643 -5.06095 0
ltoes -3.21868 0 0
rfemur -49.5528 1.15987 1.91802
rtibia 47.729 0 0
rfoot 7.25965 6.34396 0
rtoes -30.0919 0 0
lowerback 9.499 -0.33561 -0.767673
upperback 3.34253 -0.166815 4.26331
thorax -1.82269 -0.00512888 4.88254
lowerneck -4.61841 -14.0354 -4.58299
upperneck 9.88447 -18.8899 5.21865
head 4.66844 -9.19375 1.15556
lclavicle 4.77083e-015 5.29469e-014 0
lhumerus -46.037 -17.8298 106.945
lradius 54.4927 0 0
lwrist 19.6458 0 0
lhand -14.5317 -4.07482 0
lfingers 7.12502 0 0
lthumb 11.5782 24.9943 0
rclavicle 4.77083e-015 5.29469e-014 0
rhumerus 9.83592 26.0223 -75.4115
rradius 129.71 0 0
rwrist -38.3235 0 0
rhand -7.99038 -18.8363 0
rfingers 7.12502 0 0
rthumb 17.6592 -765.366 0
545
root 7.30593 15.6451 -4.01803 -173.867 63.139 -178.568
lfemur -25.0587 -3.15177 -18.3824
ltibia 63.239 0 0
lfoot -34.3908 -5.21585 0
ltoes -3.43132 0 0
rfemur -49.3089 1.02449 1.84945
rtibia 47.4665 0 0
rfoot 7.10145 6.29073 0
rtoes -30.4544 0 0
lowerback 9.50945 -0.361617 -0.769177
upperback 3.39539 -0.197706 4.2902
thorax -1.77078 -0.0200897 4.91498
lowerneck -4.50622 -14.0705 -4.58739
upperneck 9.81783 -18.9435 5.28881
head 4.63917 -9.21972 1.18243
lclavicle 4.70457e-015 5.32743e-014 0
lhumerus -46.0216 -17.3114 106.597
lradius 54.4165 0 0
lwrist 20.0444 0 0
lhand -15.1432 -4.16112 0
lfingers 7.12502 0 0
lthumb 10.99 24.9585 0
rclavicle 4.70457e-015 5.32743e-014 0
rhumerus 10.4249 25.5394 -75.6011
rradius 129.974 0 0
rwrist -38.6526 0 0
rhand -9.0785 -18.9973 0
rfingers 7.12502 0 0
rthumb 16.6238 -765.719 0
546
root 7.34532 15.6262 -3.98457 -174.038 62.7487 -178.734
lfemur -25.0902 -2.82447 -18.2381
ltibia 63.5231 0 0
lfoot -34.6173 -5.37076 0
ltoes -3.64396 0 0
rfemur -49.0649 0.889112 1.78089
rtibia 47.204 0 0
rfoot 6.94326 6.2375 0
rtoes -30.8169 0 0
lowerback 9.5199 -0.387624 -0.770681
upperback 3.44825 -0.228596 4.31708
thorax -1.71888 -0.0350505 4.94743
lowerneck -4.39403 -14.1056 -4.59179
upperneck 9.75119 -18.9972 5.35898
head 4.60991 -9.24569 1.20931
lclavicle 4.63831e-015 5.36017e-014 0
lhumerus -46.0062 -16.793 106.249
lradius 54.3403 0 0
lwrist 20.4429 0 0
lhand -15.7547 -4.24742 0
lfingers 7.12502 0 0
lthumb 10.4019 24.9226 0
rclavicle 4.63831e-015 5.36017e-014 0
rhumerus 11.0139 25.0566 -75.7907
rradius 130.237 0 0
rwrist -38.9817 0 0
rhand -10.1666 -19.1583 0
rfingers 7.12502 0 0
rthumb 15.5885 -766.071 0
547
root 7.38471 15.6074 -3.95112 -174.21 62.3585 -178.9
lfemur -25.1217 -2.49718 -18.0938
ltibia 63.8073 0 0
lfoot -34.8437 -5.52567 0
ltoes -3.8566 0 0
rfemur -48.821 0.753735 1.71233
rtibia 46.9416 0 0
rfoot 6.78507 6.18426 0
rtoes -31.1795 0 0
lowerback 9.53035 -0.413631 -0.772184
upperback 3.50111 -0.259486 4.34397
thorax -1.66697 -0.0500112 4.97987
lowerneck -4.28185 -14.1406 -4.59619
upperneck 9.68455 -19.0508 5.42914
head 4.58064 -9.27167 1.23619
lclavicle 4.57204e-015 5.39291e-014 0
lhumerus -45.9909 -16.2746 105.9
lradius 54.2642 0 0
lwrist 20.8415 0 0
lhand -16.3662 -4.33371 0
lfingers 7.12502 0 0
lthumb 9.8137 24.8868 0
rclavicle 4.57204e-015 5.39291e-014 0
rhumerus 11.6029 24.5738 -75.9803
rradius 130.501 0 0
rwrist -39.3109 0 0
rhand -11.2547 -19.3192 0
rfingers 7.12502 0 0
rthumb 14.5532 -766.424 0
548
root 7.4241 15.5885 -3.91766 -174.381 61.9682 -179.067
lfemur -25.1532 -2.16988 -17.9495
ltibia 64.0915 0 0
lfoot -35.0702 -5.68057 0
ltoes -4.06925 0 0
rfemur -48.5771 0.618357 1.64377
rtibia 46.6791 0 0
rfoot 6.62688 6.13103 0
rtoes -31.542 0 0
lowerback 9.54079 -0.439638 -0.773688
upperback 3.55396 -0.290377 4.37085
thorax -1.61507 -0.064972 5.01231
lowerneck -4.16966 -14.1757 -4.6006
upperneck 9.61791 -19.1045 5.4993
head 4.55138 -9.29764 1.26307
lclavicle 4.50578e-015 5.42565e-014 0
lhumerus -45.9755 -15.7562 105.552
lradius 54.188 0 0
lwrist 21.2401 0 0
lhand -16.9777 -4.42001 0
lfingers 7.12502 0 0
lthumb 9.22554 24.851 0
rclavicle 4.50578e-015 5.42565e-014 0
rhumerus 12.1919 24.091 -76.1699
rradius 130.765 0 0
rwrist -39.64 0 0
rhand -12.3429 -19.4802 0
rfingers 7.12502 0 0
rthumb 13.5178 -766.776 0
549
root 7.46349 15.5696 -3.8842 -174.552 61.578 -179.233
lfemur -25.1847 -1.84259 -17.8052
ltibia 64.3756 0 0
lfoot -35.2967 -5.83548 0
ltoes -4.28189 0 0
rfemur -48.3332 0.482979 1.57521
rtibia 46.4166 0 0
rfoot 6.46868 6.0778 0
rtoes -31.9046 0 0
lowerback 9.55124 -0.465645 -0.775192
upperback 3.60682 -0.321267 4.39774
thorax -1.56316 -0.0799328 5.04475
lowerneck -4.05747 -14.2108 -4.605
upperneck 9.55127 -19.1582 5.56947
head 4.52211 -9.32361 1.28995
lclavicle 4.43952e-015 5.45839e-014 0
lhumerus -45.9601 -15.2378 105.203
lradius 54.1119 0 0
lwrist 21.6387 0 0
lhand -17.5892 -4.5063 0
lfingers 7.12502 0 0
lthumb 8.63737 24.8151 0
rclavicle 4.43952e-015 5.45839e-014 0
rhumerus 12.7809 23.6081 -76.3595
rradius 131.028 0 0
rwrist -39.9691 0 0
rhand -13.431 -19.6412 0
rfingers 7.12502 0 0
rthumb 12.4825 -767.129 0
550
root 7.50288 15.5507 -3.85075 -174.723 61.1877 -179.399
lfemur -25.2162 -1.51529 -17.6609
ltibia 64.6598 0 0
lfoot -35.5232 -5.99038 0
ltoes -4.49453 0 0
rfemur -48.0893 0.347602 1.50664
rtibia 46.1541 0 0
rfoot 6.31049 6.02457 0
rtoes -32.2671 0 0
lowerback 9.56169 -0.491652 -0.776696
upperback 3.65968 -0.352158 4.42463
thorax -1.51125 -0.0948936 5.0772
lowerneck -3.94528 -14.2459 -4.6094
upperneck 9.48463 -19.2118 5.63963
head 4.49285 -9.34959 1.31682
lclavicle 4.37326e-015 5.49114e-014 0
lhumerus -45.9448 -14.7194 104.855
lradius 54.0357 0 0
lwrist 22.0372 0 0
lhand -18.2007 -4.5926 0
lfingers 7.12502 0 0
lthumb 8.04921 24.7793 0
rclavicle 4.37326e-015 5.49114e-014 0
rhumerus 13.3699 23.1253 -76.549
rradius 131.292 0 0
rwrist -40.2982 0 0
rhand -14.5191 -19.8022 0
rfingers 7.12502 0 0
rthumb 11.4471 -767.481 0
551
root 7.54227 15.5318 -3.81729 -174.895 60.7975 -179.565
lfemur -25.2477 -1.188 -17.5166
ltibia 64.944 0 0
lfoot -35.7497 -6.14529 0
ltoes -4.70717 0 0
rfemur -47.8453 0.212224 1.43808
rtibia 45.8916 0 0
rfoot 6.1523 5.97134 0
rtoes -32.6296 0 0
lowerback 9.57214 -0.517659 -0.7782
upperback 3.71254 -0.383048 4.45151
thorax -1.45935 -0.109854 5.10964
lowerneck -3.83309 -14.281 -4.6138
upperneck 9.41799 -19.2655 5.70979
head 4.46358 -9.37556 1.3437
lclavicle 4.307e-015 5.52388e-014 0
lhumerus -45.9294 -14.201 104.507
lradius 53.9596 0 0
lwrist 22.4358 0 0
lhand -18.8122 -4.67889 0
lfingers 7.12502 0 0
lthumb 7.46105 24.7435 0
rclavicle 4.307e-015 5.52388e-014 0
rhumerus 13.9589 22.6425 -76.7386
rradius 131.556 0 0
rwrist -40.6273 0 0
rhand -15.6072 -19.9632 0
rfingers 7.12502 0 0
rthumb 10.4118 -767.834 0
552
root 7.58165 15.5129 -3.78383 -175.066 60.4073 -179.731
lfemur -25.2792 -0.860701 -17.3723
ltibia 65.2281 0 0
lfoot -35.9762 -6.30019 0
ltoes -4.91982 0 0
rfemur -47.6014 0.0768465 1.36952
rtibia 45.6291 0 0
rfoot 5.99411 5.91811 0
rtoes -32.9922 0 0
lowerback 9.58259 -0.543666 -0.779704
upperback 3.76539 -0.413938 4.4784
thorax -1.40744 -0.124815 5.14208
lowerneck -3.7209 -14.3161 -4.61821
upperneck 9.35135 -19.3191 5.77996
head 4.43432 -9.40153 1.37058
lclavicle 4.24074e-015 5.55662e-014 0
lhumerus -45.914 -13.6826 104.158
lradius 53.8834 0 0
lwrist 22.8344 0 0
lhand -19.4237 -4.76519 0
lfingers 7.12502 0 0
lthumb 6.87288 24.7076 0
rclavicle 4.24074e-015 5.55662e-014 0
rhumerus 14.548 22.1597 -76.9282
rradius 131.819 0 0
rwrist -40.9564 0 0
rhand -16.6953 -20.1242 0
rfingers 7.12502 0 0
rthumb 9.37647 -768.187 0
553
root 7.62104 15.494 -3.75038 -175.237 60.017 -179.897
lfemur -25.3107 -0.533406 -17.228
ltibia 65.5123 0 0
lfoot -36.2027 -6.4551 0
ltoes -5.13246 0 0
rfemur -47.3575 -0.0585312 1.30096
rtibia 45.3667 0 0
rfoot 5.83591 5.86487 0
rtoes -33.3547 0 0
lowerback 9.59304 -0.569673 -0.781208
upperback 3.81825 -0.444829 4.50529
thorax -1.35554 -0.139776 5.17453
lowerneck -3.60872 -14.3512 -4.62261
upperneck 9.28471 -19.3728 5.85012
head 4.40505 -9.42751 1.39746
lclavicle 4.17447e-015 5.58936e-014 0
lhumerus -45.8987 -13.1642 103.81
lradius 53.8073 0 0
lwrist 23.233 0 0
lhand -20.0352 -4.85148 0
lfingers 7.12502 0 0
lthumb 6.28472 24.6718 0
rclavicle 4.17447e-015 5.58936e-014 0
rhumerus 15.137 21.6768 -77.1178
rradius 132.083 0 0
rwrist -41.2855 0 0
rhand -17.7834 -20.2852 0
rfingers 7.12502 0 0
rthumb 8.34113 -768.539 0
554
root 7.66043 15.4751 -3.71692 -175.409 59.6268 -180.064
lfemur -25.3421 -0.206111 -17.0837
ltibia 65.7965 0 0
lfoot -36.4292 -6.61 0
ltoes -5.3451 0 0
rfemur -47.1136 -0.193909 1.23239
rtibia 45.1042 0 0
rfoot 5.67772 5.81164 0
rtoes -33.7173 0 0
lowerback 9.60348 -0.595679 -0.782712
upperback 3.87111 -0.475719 4.53217
thorax -1.30363 -0.154737 5.20697
lowerneck -3.49653 -14.3863 -4.62701
upperneck 9.21807 -19.4264 5.92028
head 4.37579 -9.45348 1.42434
lclavicle 4.10821e-015 5.6221e-014 0
lhumerus -45.8833 -12.6459 103.461
lradius 53.7311 0 0
lwrist 23.6315 0 0
lhand -20.6467 -4.93778 0
lfingers 7.12502 0 0
lthumb 5.69656 24.636 0
rclavicle 4.10821e-015 5.6221e-014 0
rhumerus 15.726 21.194 -77.3074
rradius 132.347 0 0
rwrist -41.6146 0 0
rhand -18.8716 -20.4462 0
rfingers 7.12502 0 0
rthumb 7.3058 -768.892 0
555
root 7.69982 15.4562 -3.68347 -175.58 59.2365 -180.23
lfemur -25.3736 0.121184 -16.9394
ltibia 66.0806 0 0
lfoot -36.6557 -6.76491 0
ltoes -5.55774 0 0
rfemur -46.8697 -0.329286 1.16383
rtibia 44.8417 0 0
rfoot 5.51953 5.75841 0
rtoes -34.0798 0 0
lowerback 9.61393 -0.621686 -0.784216
upperback 3.92397 -0.506609 4.55906
thorax -1.25172 -0.169698 5.23941
lowerneck -3.38434 -14.4214 -4.63141
upperneck 9.15143 -19.4801 5.99045
head 4.34652 -9.47946 1.45121
lclavicle 4.04195e-015 5.65484e-014 0
lhumerus -45.868 -12.1275 103.113
lradius 53.655 0 0
lwrist 24.0301 0 0
lhand -21.2582 -5.02407 0
lfingers 7.12502 0 0
lthumb 5.10839 24.6001 0
rclavicle 4.04195e-015 5.65484e-014 0
rhumerus 16.315 20.7112 -77.497
rradius 132.61 0 0
rwrist -41.9437 0 0
rhand -19.9597 -20.6072 0
rfingers 7.12502 0 0
rthumb 6.27046 -769.244 0
556
root 7.73921 15.4373 -3.65001 -175.751 58.8463 -180.396
lfemur -25.4051 0.448479 -16.7951
ltibia 66.3648 0 0
lfoot -36.8822 -6.91982 0
ltoes -5.77039 0 0
rfemur -46.6257 -0.464664 1.09527
rtibia 44.5792 0 0
rfoot 5.36134 5.70518 0
rtoes -34.4424 0 0
lowerback 9.62438 -0.647693 -0.78572
upperback 3.97682 -0.5375 4.58594
thorax -1.19982 -0.184658 5.27185
lowerneck -3.27215 -14.4565 -4.63582
upperneck 9.08479 -19.5338 6.06061
head 4.31726 -9.50543 1.47809
lclavicle 3.97569e-015 5.68758e-014 0
lhumerus -45.8526 -11.6091 102.764
lradius 53.5788 0 0
lwrist 24.4287 0 0
lhand -21.8697 -5.11037 0
lfingers 7.12502 0 0
lthumb 4.52023 24.5643 0
rclavicle 3.97569e-015 5.68758e-014 0
rhumerus 16.904 20.2284 -77.6866
rradius 132.874 0 0
rwrist -42.2728 0 0
rhand -21.0478 -20.7682 0
rfingers 7.12502 0 0
rthumb 5.23512 -769.597 0
557
root 7.7786 15.4185 -3.61655 -175.923 58.456 -180.562
lfemur -25.4366 0.775775 -16.6508
ltibia 66.649 0 0
lfoot -37.1086 -7.07472 0
ltoes -5.98303 0 0
rfemur -46.3818 -0.600042 1.02671
rtibia 44.3167 0 0
rfoot 5.20314 5.65195 0
rtoes -34.8049 0 0
lowerback 9.63483 -0.6737 -0.787223
upperback 4.02968 -0.56839 4.61283
thorax -1.14791 -0.199619 5.3043
lowerneck -3.15996 -14.4915 -4.64022
upperneck 9.01815 -19.5874 6.13077
head 4.28799 -9.5314 1.50497
lclavicle 3.90943e-015 5.72032e-014 0
lhumerus -45.8372 -11.0907 102.416
lradius 53.5027 0 0
lwrist 24.8272 0 0
lhand -22.4812 -5.19666 0
lfingers 7.12502 0 0
lthumb 3.93206 24.5285 0
rclavicle 3.90943e-015 5.72032e-014 0
rhumerus 17.493 19.7455 -77.8762
rradius 133.138 0 0
rwrist -42.602 0 0
rhand -22.1359 -20.9291 0
rfingers 7.12502 0 0
rthumb 4.19978 -769.949 0
